<?xml version="1.0" encoding="UTF-8"?>
<!DOCTYPE svg PUBLIC "-//W3C//DTD SVG 1.1//EN" "http://www.w3.org/Graphics/SVG/1.1/DTD/svg11.dtd">
<!-- Creator: CorelDRAW 2020 (64 Bit) -->
<svg xmlns="http://www.w3.org/2000/svg" xml:space="preserve" width="9.0312mm" height="9.0312mm" version="1.1" style="shape-rendering:geometricPrecision; text-rendering:geometricPrecision; image-rendering:optimizeQuality; fill-rule:evenodd; clip-rule:evenodd"
viewBox="0 0 903.12 903.12"
 xmlns:xlink="http://www.w3.org/1999/xlink"
 xmlns:xodm="http://www.corel.com/coreldraw/odm/2003">
 <defs>
  <style type="text/css">
   <![CDATA[
    .fil0 {fill:#D2D3D5;fill-opacity:0.258824}
   ]]>
  </style>
 </defs>
 <g id="Camada_x0020_1">
  <metadata id="CorelCorpID_0Corel-Layer"/>
  <g id="_1666138379248">
   <path class="fil0" d="M897.48 457.19l-225.78 0c0.14,-6.09 1.25,-6.89 1.67,-12.45 1.38,-18.71 -1.11,-12.42 4.68,-37.64 3.54,-15.41 8.06,-29.46 14.21,-42.24 12.67,-26.31 26.65,-47.48 46.03,-66.86 29.08,-29.08 67.35,-50.65 109.1,-60.24l50.09 -6.35 0 -112.88c-35.84,0 -51.32,2.32 -84.67,10.58 -28.73,7.11 -60.83,20.35 -86.09,35.61 -33.12,20.01 -52.3,35.55 -78.42,62.69l-27.5 34.24c-6.24,8.24 -10.31,15.7 -15.79,24.78 -10.88,18.01 -6.12,11.41 -13.84,26.72 -9.28,18.39 -16.44,37.83 -21.77,59.37 -4.88,19.73 -10.58,46.38 -10.58,70.56l0 352.77 338.66 0 0 -338.66z"/>
   <path class="fil0" d="M333.04 457.19l-225.77 0c0.13,-6.09 1.25,-6.89 1.66,-12.45 2.19,-29.55 4.74,-50.49 18.89,-79.88 25.89,-53.76 59.13,-87 112.89,-112.89 29.4,-14.16 50.34,-16.71 79.88,-18.89 5.56,-0.42 6.37,-1.53 12.45,-1.67l0 -112.88c-35.84,0 -51.32,2.32 -84.67,10.58 -21.54,5.33 -40.98,12.49 -59.36,21.77 -14.74,7.43 -8.79,3 -26.73,13.84 -15.36,9.28 -34.66,21.36 -47.52,33.62l-30.9 29.07c-4.36,4.53 -5.29,6.91 -9.66,11.5 -12.27,12.86 -24.35,32.16 -33.63,47.52 -25.6,42.38 -46.19,106.26 -46.19,156.65l0 352.77 338.66 0 0 -338.66z"/>
  </g>
 </g>
</svg>
